<svg width="268" height="91" version="1.1" xmlns="http://www.w3.org/2000/svg" desc="Created with imagetracer.js version 1.2.6" ><path fill="rgb(0,0,0)" stroke="rgb(0,0,0)" stroke-width="1" opacity="0" d="M 0 0 L 56 0.5 L 46.5 6 L 32.5 19 L 19.5 22 L 8 30.5 L 1 42.5 L 0.5 46 L 0 0 Z " /><path fill="rgb(0,0,0)" stroke="rgb(0,0,0)" stroke-width="1" opacity="0" d="M 67.5 0 L 267.5 0 L 268 0.5 L 268 56.5 L 265.5 55 L 258.5 54 L 256.5 55 L 251.5 54 L 249.5 54 L 245.5 55 L 239 54 L 239 72 L 245 72 L 245 61.5 L 246.5 60 Q 250.9 61.5 250 58.5 L 251 58.5 L 251 71.5 Q 251 72.5 255.5 72 L 257 70.5 L 257 60 L 260.5 59 L 262 60.5 L 262 70.5 L 263.5 72 Q 268 71.5 268 72.5 L 268 91 L 52 90.5 Q 64.4 87.9 70 78.5 L 77 64.5 L 79 56.5 L 80 32.5 L 77 15.5 Q 73.6 5.6 67.5 0 Z M 164 19 L 164 26 Q 162 23 156 25 Q 149 27 151 38 L 159 43 L 164 41 L 170 42 L 170 20 L 170 19 L 164 19 Z M 92 25 L 92 38 L 93 40 L 99 43 L 104 41 L 110 42 L 110 25 L 104 25 Q 105 33 103 37 Q 99 38 98 36 L 98 25 L 92 25 Z M 112 25 L 112 42 L 118 42 L 118 32 Q 119 29 123 30 L 124 33 L 124 42 L 130 42 L 131 35 L 131 38 L 139 42 L 143 41 L 144 41 L 143 43 L 134 42 L 131 46 L 135 48 Q 143 50 147 47 L 150 42 L 150 26 Q 150 24 145 25 L 143 25 L 134 26 L 131 31 L 128 26 L 126 25 Q 119 23 118 26 L 112 25 Z M 177 25 L 175 26 Q 169 28 171 38 L 176 42 L 180 43 L 188 40 L 190 36 L 189 30 Q 187 23 177 25 Z M 190 25 L 191 28 L 191 40 L 190 41 L 191 42 L 197 42 L 197 32 L 199 30 L 202 32 L 202 42 L 208 42 L 208 32 L 210 30 L 213 31 L 213 42 L 220 42 L 221 41 L 227 43 L 233 42 Q 237 41 236 35 Q 233 30 226 31 L 234 30 L 236 27 L 234 25 Q 226 24 223 26 L 220 31 L 218 26 Q 215 24 209 25 Q 207 29 205 25 Q 198 23 197 26 L 190 25 Z M 92 48 L 92 72 Q 92 73 98 72 L 100 72 Q 106 73 109 70 L 111 66 L 111 69 L 116 72 Q 120 73 122 71 L 128 72 L 127 58 L 123 54 Q 114 53 111 57 L 114 60 L 117 59 Q 122 57 121 61 Q 113 59 112 64 L 110 58 L 106 54 L 100 54 L 98 55 L 98 48 L 92 48 Z M 210 51 L 210 54 L 207 55 L 207 58 L 206 56 L 202 54 L 194 55 L 190 60 L 191 69 L 197 72 Q 204 73 207 70 L 205 66 L 202 67 L 197 66 L 197 65 L 208 65 L 208 61 L 208 59 L 210 60 L 210 69 L 214 72 Q 219 73 221 71 L 219 66 L 216 67 L 216 60 L 219 60 Q 221 59 220 56 L 218 54 L 216 55 L 216 51 L 210 51 Z M 129 54 L 129 71 Q 130 73 135 72 Q 134 64 136 60 L 141 59 L 140 61 L 141 68 L 147 72 L 155 71 Q 161 69 159 60 L 153 54 Q 144 53 142 58 L 141 54 L 137 55 L 129 54 Z M 160 54 L 160 72 L 166 72 L 166 62 L 169 59 L 171 61 L 171 72 L 177 72 L 177 63 L 180 59 L 183 62 L 183 72 L 189 72 L 189 60 L 185 54 Q 178 52 177 56 L 173 54 Q 168 53 167 55 L 160 54 Z M 227 54 L 223 56 Q 219 59 220 67 L 227 72 Q 234 73 237 70 L 235 66 L 232 67 L 226 66 L 238 65 L 237 58 Q 234 53 227 54 Z " /><path fill="rgb(0,0,0)" stroke="rgb(0,0,0)" stroke-width="1" opacity="0" d="M 138.5 30 Q 143.9 28.1 143 31.5 L 144 33.5 L 143 36 Q 138.4 37.3 137 34.5 Q 136.3 30.8 138.5 30 Z " /><path fill="rgb(0,0,0)" stroke="rgb(0,0,0)" stroke-width="1" opacity="0" d="M 158.5 30 Q 163.9 28.1 163 31.5 L 164 34.5 L 163 37 Q 158.4 38.3 157 35.5 Q 156 31 158.5 30 Z " /><path fill="rgb(0,0,0)" stroke="rgb(0,0,0)" stroke-width="1" opacity="0" d="M 178.5 30 Q 183.3 29.3 184 32.5 L 183 37 Q 178.4 38.3 177 35.5 Q 176 31 178.5 30 Z " /><path fill="rgb(0,0,0)" stroke="rgb(0,0,0)" stroke-width="1" opacity="0" d="M 220.5 32 L 222.5 35 L 230 36 Q 231.3 39.3 226.5 38 L 222.5 36 L 219.5 40 L 220 38.5 L 220.5 32 Z " /><path fill="rgb(0,0,0)" stroke="rgb(0,0,0)" stroke-width="1" opacity="0" d="M 100.5 59 Q 104.5 58.5 105 61.5 Q 105.8 66.3 102.5 67 Q 98.5 67.5 98 64.5 Q 97.3 59.8 100.5 59 Z " /><path fill="rgb(0,0,0)" stroke="rgb(0,0,0)" stroke-width="1" opacity="0" d="M 148.5 59 Q 152.5 58.5 153 61.5 Q 153.8 66.3 150.5 67 Q 146.5 67.5 146 64.5 Q 145.3 59.8 148.5 59 Z " /><path fill="rgb(0,0,0)" stroke="rgb(0,0,0)" stroke-width="1" opacity="0" d="M 197.5 59 Q 201.3 58.3 202 60.5 L 196.5 61 L 197.5 59 Z " /><path fill="rgb(0,0,0)" stroke="rgb(0,0,0)" stroke-width="1" opacity="0" d="M 227.5 59 Q 231.3 58.3 232 60.5 L 226.5 61 L 227.5 59 Z " /><path fill="rgb(0,0,0)" stroke="rgb(0,0,0)" stroke-width="1" opacity="0" d="M 0.5 61 Q 4.5 77 16.5 85 L 29 90.5 L 0 91 L 0.5 61 Z " /><path fill="rgb(0,0,0)" stroke="rgb(0,0,0)" stroke-width="1" opacity="0" d="M 117 65 L 122 65.5 Q 120.8 68 117 67 L 117 65 Z " /><path fill="rgb(2,28,73)" stroke="rgb(2,28,73)" stroke-width="1" opacity="0.6313725490196078" d="M 164 19 L 169 19.5 L 165 20 L 165 26.5 L 163.5 27 L 164 25.5 L 164 19 Z " /><path fill="rgb(2,28,73)" stroke="rgb(2,28,73)" stroke-width="1" opacity="0.6313725490196078" d="M 93.5 25 L 97 25.5 L 93 26 L 92.5 36 L 92 26.5 L 93.5 25 Z " /><path fill="rgb(2,28,73)" stroke="rgb(2,28,73)" stroke-width="1" opacity="0.6313725490196078" d="M 105.5 25 L 109 25.5 L 105 26 L 104.5 35 L 104 26.5 L 105.5 25 Z " /><path fill="rgb(2,28,73)" stroke="rgb(2,28,73)" stroke-width="1" opacity="0.6313725490196078" d="M 112 25 L 117 25.5 L 113 26 L 113 40.5 L 116.5 41 L 116.5 42 Q 112 42.5 112 41.5 L 112 25 Z " /><path fill="rgb(2,28,73)" stroke="rgb(2,28,73)" stroke-width="1" opacity="0.6313725490196078" d="M 136.5 25 L 142 25.5 L 136.5 26 L 136.5 25 Z " /><path fill="rgb(2,28,73)" stroke="rgb(2,28,73)" stroke-width="1" opacity="0.6313725490196078" d="M 145.5 25 L 149 25.5 L 143.5 27 L 143.5 26 L 145.5 25 Z " /><path fill="rgb(2,28,73)" stroke="rgb(2,28,73)" stroke-width="1" opacity="0.6313725490196078" d="M 177.5 25 L 180 25.5 L 177.5 26 L 177.5 25 Z " /><path fill="rgb(2,28,73)" stroke="rgb(2,28,73)" stroke-width="1" opacity="0.6313725490196078" d="M 191.5 25 Q 196 24 197 26.5 L 195.5 27 L 191.5 26 L 191.5 25 Z " /><path fill="rgb(2,28,73)" stroke="rgb(2,28,73)" stroke-width="1" opacity="0.6313725490196078" d="M 209.5 25 L 215 25.5 L 209.5 26 L 209.5 25 Z " /><path fill="rgb(2,28,73)" stroke="rgb(2,28,73)" stroke-width="1" opacity="0.6313725490196078" d="M 225.5 25 L 228 25.5 L 225.5 26 L 225.5 25 Z " /><path fill="rgb(2,28,73)" stroke="rgb(2,28,73)" stroke-width="1" opacity="0.6313725490196078" d="M 229.5 25 L 232 25.5 L 229.5 26 L 229.5 25 Z " /><path fill="rgb(2,28,73)" stroke="rgb(2,28,73)" stroke-width="1" opacity="0.6313725490196078" d="M 126.5 26 L 127.5 28 L 126.5 26 Z " /><path fill="rgb(2,28,73)" stroke="rgb(2,28,73)" stroke-width="1" opacity="0.6313725490196078" d="M 134.5 26 L 132.5 29 L 134.5 26 Z " /><path fill="rgb(2,28,73)" stroke="rgb(2,28,73)" stroke-width="1" opacity="0.6313725490196078" d="M 216.5 26 L 217.5 28 L 216.5 26 Z " /><path fill="rgb(2,28,73)" stroke="rgb(2,28,73)" stroke-width="1" opacity="0.6313725490196078" d="M 186.5 27 L 187.5 29 L 186.5 27 Z " /><path fill="rgb(2,28,73)" stroke="rgb(2,28,73)" stroke-width="1" opacity="0.6313725490196078" d="M 122.5 29 L 123.5 31 L 122.5 29 Z " /><path fill="rgb(2,28,73)" stroke="rgb(2,28,73)" stroke-width="1" opacity="0.6313725490196078" d="M 142.5 29 L 143.5 31 L 142.5 29 Z " /><path fill="rgb(2,28,73)" stroke="rgb(2,28,73)" stroke-width="1" opacity="0.6313725490196078" d="M 162.5 29 L 163.5 31 L 162.5 29 Z " /><path fill="rgb(2,28,73)" stroke="rgb(2,28,73)" stroke-width="1" opacity="0.6313725490196078" d="M 182.5 29 L 183.5 31 L 182.5 29 Z " /><path fill="rgb(2,28,73)" stroke="rgb(2,28,73)" stroke-width="1" opacity="0.6313725490196078" d="M 212.5 29 L 213.5 31 L 212.5 29 Z " /><path fill="rgb(2,28,73)" stroke="rgb(2,28,73)" stroke-width="1" opacity="0.6313725490196078" d="M 225.5 30 L 228 31.5 L 226.5 32 L 225.5 30 Z " /><path fill="rgb(2,28,73)" stroke="rgb(2,28,73)" stroke-width="1" opacity="0.6313725490196078" d="M 151.5 31 L 152 35.5 L 151 35.5 L 151.5 31 Z " /><path fill="rgb(2,28,73)" stroke="rgb(2,28,73)" stroke-width="1" opacity="0.6313725490196078" d="M 207.5 31 L 208 40.5 Q 207.3 42.8 203.5 42 L 202.5 40 L 207 41 L 207.5 31 Z " /><path fill="rgb(2,28,73)" stroke="rgb(2,28,73)" stroke-width="1" opacity="0.6313725490196078" d="M 124.5 32 L 125 41 L 129 41.5 L 124 42 L 124.5 32 Z " /><path fill="rgb(2,28,73)" stroke="rgb(2,28,73)" stroke-width="1" opacity="0.6313725490196078" d="M 164.5 32 L 165 34.5 L 164 34.5 L 164.5 32 Z " /><path fill="rgb(2,28,73)" stroke="rgb(2,28,73)" stroke-width="1" opacity="0.6313725490196078" d="M 184.5 32 L 185 34.5 L 184 34.5 L 184.5 32 Z " /><path fill="rgb(2,28,73)" stroke="rgb(2,28,73)" stroke-width="1" opacity="0.6313725490196078" d="M 221.5 32 L 225 34.5 L 223.5 35 L 221.5 32 Z " /><path fill="rgb(2,28,73)" stroke="rgb(2,28,73)" stroke-width="1" opacity="0.6313725490196078" d="M 136.5 35 L 137.5 37 L 136.5 35 Z " /><path fill="rgb(2,28,73)" stroke="rgb(2,28,73)" stroke-width="1" opacity="0.6313725490196078" d="M 143.5 35 L 142.5 37 L 143.5 35 Z " /><path fill="rgb(2,28,73)" stroke="rgb(2,28,73)" stroke-width="1" opacity="0.6313725490196078" d="M 103.5 36 L 102.5 38 L 103.5 36 Z " /><path fill="rgb(2,28,73)" stroke="rgb(2,28,73)" stroke-width="1" opacity="0.6313725490196078" d="M 163.5 36 L 162.5 38 L 163.5 36 Z " /><path fill="rgb(2,28,73)" stroke="rgb(2,28,73)" stroke-width="1" opacity="0.6313725490196078" d="M 183.5 36 L 182.5 38 L 183.5 36 Z " /><path fill="rgb(2,28,73)" stroke="rgb(2,28,73)" stroke-width="1" opacity="0.6313725490196078" d="M 187.5 38 L 185.5 41 L 187.5 38 Z " /><path fill="rgb(2,28,73)" stroke="rgb(2,28,73)" stroke-width="1" opacity="0.6313725490196078" d="M 226.5 38 L 229 38.5 L 226.5 39 L 226.5 38 Z " /><path fill="rgb(2,28,73)" stroke="rgb(2,28,73)" stroke-width="1" opacity="0.6313725490196078" d="M 143.5 39 Q 145.8 38.3 145 40.5 L 143.5 39 Z " /><path fill="rgb(2,28,73)" stroke="rgb(2,28,73)" stroke-width="1" opacity="0.6313725490196078" d="M 153.5 39 L 154.5 41 L 153.5 39 Z " /><path fill="rgb(2,28,73)" stroke="rgb(2,28,73)" stroke-width="1" opacity="0.6313725490196078" d="M 234.5 39 L 233.5 41 L 234.5 39 Z " /><path fill="rgb(2,28,73)" stroke="rgb(2,28,73)" stroke-width="1" opacity="0.6313725490196078" d="M 103.5 40 L 109 41.5 L 105.5 42 L 103.5 40 Z " /><path fill="rgb(2,28,73)" stroke="rgb(2,28,73)" stroke-width="1" opacity="0.6313725490196078" d="M 163.5 40 L 169 41.5 L 165.5 42 L 163.5 40 Z " /><path fill="rgb(2,28,73)" stroke="rgb(2,28,73)" stroke-width="1" opacity="0.6313725490196078" d="M 191.5 41 L 196 41.5 L 191.5 42 L 191.5 41 Z " /><path fill="rgb(2,28,73)" stroke="rgb(2,28,73)" stroke-width="1" opacity="0.6313725490196078" d="M 214.5 41 L 219 41.5 L 214.5 42 L 214.5 41 Z " /><path fill="rgb(2,28,73)" stroke="rgb(2,28,73)" stroke-width="1" opacity="0.6313725490196078" d="M 229.5 41 L 232 41.5 L 229.5 42 L 229.5 41 Z " /><path fill="rgb(2,28,73)" stroke="rgb(2,28,73)" stroke-width="1" opacity="0.6313725490196078" d="M 143.5 42 L 142.5 44 L 143.5 42 Z " /><path fill="rgb(2,28,73)" stroke="rgb(2,28,73)" stroke-width="1" opacity="0.6313725490196078" d="M 147.5 44 L 145.5 47 L 147.5 44 Z " /><path fill="rgb(2,28,73)" stroke="rgb(2,28,73)" stroke-width="1" opacity="0.6313725490196078" d="M 136.5 47 L 143 47.5 L 136.5 48 L 136.5 47 Z " /><path fill="rgb(2,28,73)" stroke="rgb(2,28,73)" stroke-width="1" opacity="0.6313725490196078" d="M 92.5 49 L 93 69.5 L 92 69.5 L 92.5 49 Z " /><path fill="rgb(2,28,73)" stroke="rgb(2,28,73)" stroke-width="1" opacity="0.6313725490196078" d="M 97.5 49 L 98 55.5 L 97 55.5 L 97.5 49 Z " /><path fill="rgb(2,28,73)" stroke="rgb(2,28,73)" stroke-width="1" opacity="0.6313725490196078" d="M 210 51 L 215 51.5 L 211 52 L 210.5 55 L 210 51 Z " /><path fill="rgb(2,28,73)" stroke="rgb(2,28,73)" stroke-width="1" opacity="0.6313725490196078" d="M 106.5 55 L 109.5 59 L 106.5 55 Z " /><path fill="rgb(2,28,73)" stroke="rgb(2,28,73)" stroke-width="1" opacity="0.6313725490196078" d="M 160.5 55 L 161 70.5 L 160 70.5 L 160.5 55 Z " /><path fill="rgb(2,28,73)" stroke="rgb(2,28,73)" stroke-width="1" opacity="0.6313725490196078" d="M 177.5 55 L 176.5 57 L 177.5 55 Z " /><path fill="rgb(2,28,73)" stroke="rgb(2,28,73)" stroke-width="1" opacity="0.6313725490196078" d="M 194.5 55 L 193.5 57 L 194.5 55 Z " /><path fill="rgb(2,28,73)" stroke="rgb(2,28,73)" stroke-width="1" opacity="0.6313725490196078" d="M 251.5 55 L 252 58.5 L 251 58.5 L 251.5 55 Z " /><path fill="rgb(2,28,73)" stroke="rgb(2,28,73)" stroke-width="1" opacity="0.6313725490196078" d="M 143.5 56 L 142.5 58 L 143.5 56 Z " /><path fill="rgb(2,28,73)" stroke="rgb(2,28,73)" stroke-width="1" opacity="0.6313725490196078" d="M 155.5 56 L 156.5 58 L 155.5 56 Z " /><path fill="rgb(2,28,73)" stroke="rgb(2,28,73)" stroke-width="1" opacity="0.6313725490196078" d="M 204.5 56 L 205.5 58 L 204.5 56 Z " /><path fill="rgb(2,28,73)" stroke="rgb(2,28,73)" stroke-width="1" opacity="0.6313725490196078" d="M 223.5 56 L 221.5 59 L 223.5 56 Z " /><path fill="rgb(2,28,73)" stroke="rgb(2,28,73)" stroke-width="1" opacity="0.6313725490196078" d="M 234.5 56 L 236.5 59 L 234.5 56 Z " /><path fill="rgb(2,28,73)" stroke="rgb(2,28,73)" stroke-width="1" opacity="0.6313725490196078" d="M 100.5 58 L 103 58.5 L 100.5 59 L 100.5 58 Z " /><path fill="rgb(2,28,73)" stroke="rgb(2,28,73)" stroke-width="1" opacity="0.6313725490196078" d="M 116.5 58 Q 121 57 122 59.5 L 120.5 59 Q 115.5 60 116.5 58 Z " /><path fill="rgb(2,28,73)" stroke="rgb(2,28,73)" stroke-width="1" opacity="0.6313725490196078" d="M 148.5 58 L 151 58.5 L 148.5 59 L 148.5 58 Z " /><path fill="rgb(2,28,73)" stroke="rgb(2,28,73)" stroke-width="1" opacity="0.6313725490196078" d="M 136.5 59 L 135.5 61 L 136.5 59 Z " /><path fill="rgb(2,28,73)" stroke="rgb(2,28,73)" stroke-width="1" opacity="0.6313725490196078" d="M 210.5 59 L 211 67.5 L 210 67.5 L 210.5 59 Z " /><path fill="rgb(2,28,73)" stroke="rgb(2,28,73)" stroke-width="1" opacity="0.6313725490196078" d="M 257.5 59 L 256.5 61 L 257.5 59 Z " /><path fill="rgb(2,28,73)" stroke="rgb(2,28,73)" stroke-width="1" opacity="0.6313725490196078" d="M 202.5 60 L 203 62 L 195 61.5 L 202.5 60 Z " /><path fill="rgb(2,28,73)" stroke="rgb(2,28,73)" stroke-width="1" opacity="0.6313725490196078" d="M 251.5 60 L 252 63.5 L 251 63.5 L 251.5 60 Z " /><path fill="rgb(2,28,73)" stroke="rgb(2,28,73)" stroke-width="1" opacity="0.6313725490196078" d="M 97.5 61 L 98 64.5 L 97 64.5 L 97.5 61 Z " /><path fill="rgb(2,28,73)" stroke="rgb(2,28,73)" stroke-width="1" opacity="0.6313725490196078" d="M 110.5 61 L 111 63.5 L 110 63.5 L 110.5 61 Z " /><path fill="rgb(2,28,73)" stroke="rgb(2,28,73)" stroke-width="1" opacity="0.6313725490196078" d="M 117.5 61 L 122 61.5 L 117.5 62 L 117.5 61 Z " /><path fill="rgb(2,28,73)" stroke="rgb(2,28,73)" stroke-width="1" opacity="0.6313725490196078" d="M 145.5 61 L 146 64.5 L 145 64.5 L 145.5 61 Z " /><path fill="rgb(2,28,73)" stroke="rgb(2,28,73)" stroke-width="1" opacity="0.6313725490196078" d="M 158.5 61 L 159 64.5 L 158 64.5 L 158.5 61 Z " /><path fill="rgb(2,28,73)" stroke="rgb(2,28,73)" stroke-width="1" opacity="0.6313725490196078" d="M 183.5 61 L 184 70.5 L 183 70.5 L 183.5 61 Z " /><path fill="rgb(2,28,73)" stroke="rgb(2,28,73)" stroke-width="1" opacity="0.6313725490196078" d="M 220.5 61 L 221 64.5 L 220 64.5 L 220.5 61 Z " /><path fill="rgb(2,28,73)" stroke="rgb(2,28,73)" stroke-width="1" opacity="0.6313725490196078" d="M 225.5 61 L 233 61.5 L 225.5 62 L 225.5 61 Z " /><path fill="rgb(2,28,73)" stroke="rgb(2,28,73)" stroke-width="1" opacity="0.6313725490196078" d="M 237.5 61 L 238 63.5 L 237 63.5 L 237.5 61 Z " /><path fill="rgb(2,28,73)" stroke="rgb(2,28,73)" stroke-width="1" opacity="0.6313725490196078" d="M 244.5 61 L 245 70.5 L 244 70.5 L 244.5 61 Z " /><path fill="rgb(2,28,73)" stroke="rgb(2,28,73)" stroke-width="1" opacity="0.6313725490196078" d="M 113.5 62 L 112.5 64 L 113.5 62 Z " /><path fill="rgb(2,28,73)" stroke="rgb(2,28,73)" stroke-width="1" opacity="0.6313725490196078" d="M 176.5 62 L 177 70.5 L 176 70.5 L 176.5 62 Z " /><path fill="rgb(2,28,73)" stroke="rgb(2,28,73)" stroke-width="1" opacity="0.6313725490196078" d="M 263.5 62 L 264 70.5 L 263 70.5 L 263.5 62 Z " /><path fill="rgb(2,28,73)" stroke="rgb(2,28,73)" stroke-width="1" opacity="0.6313725490196078" d="M 134.5 63 L 135 70.5 L 134 70.5 L 134.5 63 Z " /><path fill="rgb(2,28,73)" stroke="rgb(2,28,73)" stroke-width="1" opacity="0.6313725490196078" d="M 195.5 64 L 197 66.5 L 195 65.5 L 195.5 64 Z " /><path fill="rgb(2,28,73)" stroke="rgb(2,28,73)" stroke-width="1" opacity="0.6313725490196078" d="M 225.5 64 L 227 66.5 L 225 65.5 L 225.5 64 Z " /><path fill="rgb(2,28,73)" stroke="rgb(2,28,73)" stroke-width="1" opacity="0.6313725490196078" d="M 111.5 65 L 112 67.5 L 111 67.5 L 111.5 65 Z " /><path fill="rgb(2,28,73)" stroke="rgb(2,28,73)" stroke-width="1" opacity="0.6313725490196078" d="M 233.5 66 L 236 67.5 L 234.5 67 L 233.5 66 Z " /><path fill="rgb(2,28,73)" stroke="rgb(2,28,73)" stroke-width="1" opacity="0.6313725490196078" d="M 100.5 67 L 103 67.5 L 100.5 68 L 100.5 67 Z " /><path fill="rgb(2,28,73)" stroke="rgb(2,28,73)" stroke-width="1" opacity="0.6313725490196078" d="M 148.5 67 L 151 67.5 L 148.5 68 L 148.5 67 Z " /><path fill="rgb(2,28,73)" stroke="rgb(2,28,73)" stroke-width="1" opacity="0.6313725490196078" d="M 191.5 67 L 193.5 70 L 191.5 67 Z " /><path fill="rgb(2,28,73)" stroke="rgb(2,28,73)" stroke-width="1" opacity="0.6313725490196078" d="M 198.5 67 L 202 67.5 L 198.5 68 L 198.5 67 Z " /><path fill="rgb(2,28,73)" stroke="rgb(2,28,73)" stroke-width="1" opacity="0.6313725490196078" d="M 216.5 67 L 220 68.5 L 218.5 68 Q 215.5 68.5 216.5 67 Z " /><path fill="rgb(2,28,73)" stroke="rgb(2,28,73)" stroke-width="1" opacity="0.6313725490196078" d="M 221.5 67 L 223.5 70 L 221.5 67 Z " /><path fill="rgb(2,28,73)" stroke="rgb(2,28,73)" stroke-width="1" opacity="0.6313725490196078" d="M 228.5 67 L 232 67.5 L 228.5 68 L 228.5 67 Z " /><path fill="rgb(2,28,73)" stroke="rgb(2,28,73)" stroke-width="1" opacity="0.6313725490196078" d="M 108.5 68 L 107.5 70 L 108.5 68 Z " /><path fill="rgb(2,28,73)" stroke="rgb(2,28,73)" stroke-width="1" opacity="0.6313725490196078" d="M 156.5 68 L 155.5 70 L 156.5 68 Z " /><path fill="rgb(254,247,246)" stroke="rgb(254,247,246)" stroke-width="1" opacity="0.9882352941176471" d="M 52.5 33 L 65.5 33 L 69 35.5 L 70 41.5 L 66 47 L 70 49.5 L 71 54.5 L 67.5 60 L 61.5 63 L 42 65 L 42 35.5 L 43.5 35 L 52.5 33 Z M 56 40 L 55 41 Q 50 40 52 45 L 59 44 Q 61 38 56 40 Z M 57 51 L 52 52 L 52 56 L 59 56 L 60 53 L 57 51 Z " /><path fill="rgb(254,247,246)" stroke="rgb(254,247,246)" stroke-width="1" opacity="0.9882352941176471" d="M 36.5 35 L 40 35.5 L 40 54.5 Q 38.9 61.9 33.5 65 L 25.5 68 L 19.5 68 L 12 63.5 L 10 58.5 L 10 39.5 L 11.5 38 L 20 38 L 20 55.5 L 22.5 59 Q 28 60 29 56.5 L 30 53.5 L 30 36 L 36.5 35 Z " /><path fill="rgb(0,28,77)" stroke="rgb(0,28,77)" stroke-width="1" opacity="0.984313725490196" d="M 165 20 L 169 20.5 L 169 41 L 163.5 40 L 158.5 42 L 152 37.5 Q 150 28 155.5 26 L 159.5 25 L 165 27 L 165 20 Z M 159 29 Q 155 30 156 36 Q 157 39 163 38 L 165 35 L 164 31 Q 163 28 159 29 Z " /><path fill="rgb(0,28,77)" stroke="rgb(0,28,77)" stroke-width="1" opacity="0.984313725490196" d="M 122.5 25 L 128 28.5 L 129 30.5 L 129 41 L 125 41 L 125 32.5 L 122.5 29 Q 117.8 28.3 117 31.5 L 117 41 L 113 41 L 113 26.5 L 116.5 26 L 118.5 26 L 122.5 25 Z " /><path fill="rgb(0,28,77)" stroke="rgb(0,28,77)" stroke-width="1" opacity="0.984313725490196" d="M 180.5 25 L 184.5 26 L 188 29.5 L 189 35.5 L 184.5 41 L 179.5 42 L 175.5 41 L 172 37.5 L 171 33.5 L 172 29.5 L 174.5 27 L 180.5 25 Z M 179 29 Q 175 30 176 36 Q 177 39 183 38 L 185 35 L 184 31 Q 183 28 179 29 Z " /><path fill="rgb(0,28,77)" stroke="rgb(0,28,77)" stroke-width="1" opacity="0.984313725490196" d="M 200.5 25 L 206.5 28 Q 208.3 24.3 215.5 26 Q 220.9 30.3 219 41 L 214 41 L 214 30.5 Q 213.3 28.3 209.5 29 L 207 31.5 L 207 41 L 203 41 L 203 31.5 Q 202.5 28.5 198.5 29 L 196 31.5 L 196 41 L 191 41 L 191 38.5 L 192 36.5 L 191 35.5 L 191 26 L 196.5 27 L 200.5 25 Z " /><path fill="rgb(0,28,77)" stroke="rgb(0,28,77)" stroke-width="1" opacity="0.984313725490196" d="M 228.5 25 L 234 26 L 234 29 L 226.5 29 Q 223.5 30.5 226.5 32 Q 232.7 31.3 235 34.5 Q 236 40 232.5 41 L 226.5 42 L 221 39.5 L 222.5 37 L 228.5 39 L 231 38 L 229.5 35 Q 222.6 35.9 221 31.5 L 222 27 L 228.5 25 Z " /><path fill="rgb(0,28,77)" stroke="rgb(0,28,77)" stroke-width="1" opacity="0.984313725490196" d="M 93 26 L 97 26 L 97 35.5 Q 97.8 38.8 102.5 38 Q 106.9 34.7 105 26 L 109 26.5 L 109 41 L 103.5 40 L 98.5 42 L 94 39.5 L 93 37.5 L 93 26 Z " /><path fill="rgb(0,28,77)" stroke="rgb(0,28,77)" stroke-width="1" opacity="0.984313725490196" d="M 135.5 26 L 144.5 27 L 149 26 L 149 41.5 L 144.5 47 Q 135.6 48.9 132 45.5 L 133 43 L 142.5 44 L 145 39 L 138.5 41 L 133 39 L 131 31.5 L 135.5 26 Z M 139 29 L 138 30 Q 135 29 136 36 Q 137 38 143 37 L 145 34 L 144 31 Q 143 28 139 29 Z " /><path fill="rgb(0,28,77)" stroke="rgb(0,28,77)" stroke-width="1" opacity="0.984313725490196" d="M 93 49 L 97 49 L 97 55.5 L 98.5 56 Q 100 53.5 105.5 55 Q 111.8 56.8 110 66.5 Q 108.1 72.1 99.5 71 L 97 69.5 L 97 71 L 93 71 L 93 49 Z M 101 58 L 98 59 L 97 62 Q 96 67 101 68 L 105 67 L 106 65 L 105 59 L 101 58 Z " /><path fill="rgb(0,28,77)" stroke="rgb(0,28,77)" stroke-width="1" opacity="0.984313725490196" d="M 211 52 Q 216.2 49.9 215 54.5 L 219 56.5 L 217.5 59 L 215 59.5 L 215 66.5 L 220 69.5 Q 218.8 72.3 213.5 71 L 211 68.5 L 211 59 Q 206.1 60.6 208 55 Q 212.5 56.5 211 52 Z " /><path fill="rgb(0,28,77)" stroke="rgb(0,28,77)" stroke-width="1" opacity="0.984313725490196" d="M 115.5 55 Q 123.5 53.5 126 57.5 L 127 71 L 123 71 L 123 69.5 L 121.5 70 L 115.5 71 L 112 68.5 Q 111 63 114.5 62 L 121.5 62 L 122 59.5 Q 121 57 116.5 58 L 113 59 Q 111.5 55.3 114.5 56 L 115.5 55 Z M 118 64 L 116 68 Q 122 69 123 66 Q 122 63 118 64 Z " /><path fill="rgb(0,28,77)" stroke="rgb(0,28,77)" stroke-width="1" opacity="0.984313725490196" d="M 130 55 L 134 55 L 134 56.5 L 135.5 56 L 140 55 Q 142.2 60.6 136.5 59 Q 132.6 62.8 134 71 L 130 70.5 L 130 55 Z " /><path fill="rgb(0,28,77)" stroke="rgb(0,28,77)" stroke-width="1" opacity="0.984313725490196" d="M 146.5 55 Q 155.8 53.6 158 59.5 Q 159.8 68.3 154.5 70 L 146.5 71 L 142 67.5 L 141 60.5 L 144.5 56 L 146.5 55 Z M 149 58 L 146 59 L 145 62 Q 144 67 149 68 L 153 67 L 154 65 L 153 59 L 149 58 Z " /><path fill="rgb(0,28,77)" stroke="rgb(0,28,77)" stroke-width="1" opacity="0.984313725490196" d="M 161 55 L 166.5 56 Q 167.8 53.8 172.5 55 L 176.5 57 Q 178 53.5 184.5 55 L 188 59.5 L 188 71 L 184 71 L 184 61.5 L 183 59 L 179.5 58 Q 174 61.3 176 71 L 172 71 L 172 60.5 L 168.5 58 L 166 59 Q 163.8 62.7 165 71 L 161 70.5 L 161 55 Z " /><path fill="rgb(0,28,77)" stroke="rgb(0,28,77)" stroke-width="1" opacity="0.984313725490196" d="M 195.5 55 Q 203.8 53.7 206 58.5 L 207 64 L 195.5 64 L 195 65.5 Q 196.4 68.6 201.5 68 L 204.5 67 Q 207.5 68.5 204.5 70 L 196.5 71 L 191 66.5 L 190 62.5 L 192 57 L 195.5 55 Z M 198 58 L 197 59 Q 194 58 195 62 L 203 62 L 203 61 Q 202 57 198 58 Z " /><path fill="rgb(0,28,77)" stroke="rgb(0,28,77)" stroke-width="1" opacity="0.984313725490196" d="M 226.5 55 Q 235.1 53.9 237 59.5 L 237 64 L 225.5 64 L 225 65.5 Q 226.4 68.6 231.5 68 L 234.5 67 Q 237.5 68.5 234.5 70 L 226.5 71 L 221 66.5 Q 219.3 57.8 224.5 56 L 226.5 55 Z M 228 58 L 225 62 L 233 62 L 233 61 Q 232 57 228 58 Z " /><path fill="rgb(0,28,77)" stroke="rgb(0,28,77)" stroke-width="1" opacity="0.984313725490196" d="M 240 55 L 244 55 L 244 56.5 L 246.5 55 L 250 55.5 L 248.5 59 Q 244.5 58.5 244 61.5 L 244 71 L 240 71 L 240 55 Z " /><path fill="rgb(0,28,77)" stroke="rgb(0,28,77)" stroke-width="1" opacity="0.984313725490196" d="M 252 55 L 257.5 56 Q 258.8 53.8 263.5 55 L 267 57.5 L 268 59.5 L 268 71 L 264 71 L 264 62.5 L 263 59 L 259.5 58 L 256 60.5 L 256 70.5 L 252.5 71 Q 249.8 69.8 251 64.5 L 252 60.5 L 252 58.5 L 252 55 Z " /><path fill="rgb(248,161,163)" stroke="rgb(248,161,163)" stroke-width="1" opacity="0.6470588235294118" d="M 56.5 0 L 66.5 0 L 72 5.5 L 76 14.5 L 75 14.5 Q 72.8 6.8 67.5 2 Q 64.3 -0.3 57.5 1 L 49.5 5 L 33.5 19 L 36.5 15 Q 44.8 5.8 56.5 0 Z " /><path fill="rgb(248,161,163)" stroke="rgb(248,161,163)" stroke-width="1" opacity="0.6470588235294118" d="M 76.5 16 L 78 23.5 L 77 23.5 L 76.5 16 Z " /><path fill="rgb(248,161,163)" stroke="rgb(248,161,163)" stroke-width="1" opacity="0.6470588235294118" d="M 30.5 19 L 32 19.5 L 17.5 24 L 6 34.5 L 1.5 43 L 2 41.5 Q 4.8 32.3 11.5 27 L 19.5 22 L 30.5 19 Z " /><path fill="rgb(248,161,163)" stroke="rgb(248,161,163)" stroke-width="1" opacity="0.6470588235294118" d="M 78.5 25 L 80 33.5 L 80 47.5 L 76 66.5 Q 71.7 78.7 62.5 86 Q 57.1 90.6 47.5 91 L 47.5 90 Q 61.3 88.3 68 79.5 L 77 60.5 L 78 48.5 L 79 47.5 L 79 34.5 L 78 33.5 L 78.5 25 Z " /><path fill="rgb(248,161,163)" stroke="rgb(248,161,163)" stroke-width="1" opacity="0.6470588235294118" d="M 0.5 46 L 1 51.5 L 0 51.5 L 0.5 46 Z " /><path fill="rgb(248,161,163)" stroke="rgb(248,161,163)" stroke-width="1" opacity="0.6470588235294118" d="M 0.5 54 L 3 66.5 L 14.5 82 L 26.5 89 L 35 90.5 L 29.5 91 Q 14.8 86.8 7 75.5 L 0 60.5 L 0.5 54 Z " /><path fill="rgb(237,134,135)" stroke="rgb(237,134,135)" stroke-width="1" opacity="0.996078431372549" d="M 57.5 1 Q 67.3 -0.8 70 4.5 L 72 7.5 L 70.5 8 L 64.5 4 L 45.5 15 L 34.5 19 L 34.5 18 L 49.5 5 L 57.5 1 Z " /><path fill="rgb(237,134,135)" stroke="rgb(237,134,135)" stroke-width="1" opacity="0.996078431372549" d="M 73.5 11 L 75 13.5 L 73 12.5 L 73.5 11 Z " /><path fill="rgb(237,134,135)" stroke="rgb(237,134,135)" stroke-width="1" opacity="0.996078431372549" d="M 19.5 23 L 21 23.5 Q 12.4 27.4 7 34.5 L 5.5 37 L 6 35.5 L 14.5 26 L 19.5 23 Z " /><path fill="rgb(237,134,135)" stroke="rgb(237,134,135)" stroke-width="1" opacity="0.996078431372549" d="M 77.5 24 L 78 31.5 L 77 31.5 L 77.5 24 Z " /><path fill="rgb(237,134,135)" stroke="rgb(237,134,135)" stroke-width="1" opacity="0.996078431372549" d="M 54.5 32 L 65.5 32 L 67 33.5 L 65.5 33 L 54.5 33 L 54.5 32 Z " /><path fill="rgb(237,134,135)" stroke="rgb(237,134,135)" stroke-width="1" opacity="0.996078431372549" d="M 45.5 33 L 52 33.5 L 45.5 34 L 45.5 33 Z " /><path fill="rgb(237,134,135)" stroke="rgb(237,134,135)" stroke-width="1" opacity="0.996078431372549" d="M 77.5 33 L 79 34.5 L 79 47.5 L 75 66.5 Q 71.1 77.1 63.5 84 Q 56 90.5 42.5 91 L 42.5 90 Q 57.7 88.2 64 77.5 L 72 63.5 L 76 47.5 L 77.5 33 Z " /><path fill="rgb(237,134,135)" stroke="rgb(237,134,135)" stroke-width="1" opacity="0.996078431372549" d="M 68.5 34 L 71 39.5 L 70 39.5 L 68.5 34 Z " /><path fill="rgb(237,134,135)" stroke="rgb(237,134,135)" stroke-width="1" opacity="0.996078431372549" d="M 31.5 35 L 36 35.5 L 31.5 36 L 31.5 35 Z " /><path fill="rgb(237,134,135)" stroke="rgb(237,134,135)" stroke-width="1" opacity="0.996078431372549" d="M 29.5 36 L 30 53.5 L 29 53.5 L 29.5 36 Z " /><path fill="rgb(237,134,135)" stroke="rgb(237,134,135)" stroke-width="1" opacity="0.996078431372549" d="M 13.5 37 L 21 37 L 21 55.5 L 20 55.5 L 20 38 L 13.5 38 L 13.5 37 Z " /><path fill="rgb(237,134,135)" stroke="rgb(237,134,135)" stroke-width="1" opacity="0.996078431372549" d="M 9 38 L 11 38.5 L 10 39.5 L 9.5 58 L 9 38 Z " /><path fill="rgb(237,134,135)" stroke="rgb(237,134,135)" stroke-width="1" opacity="0.996078431372549" d="M 55.5 40 Q 59.9 38.5 59 41.5 L 58.5 44 L 57.5 41 Q 54.5 41.5 55.5 40 Z " /><path fill="rgb(237,134,135)" stroke="rgb(237,134,135)" stroke-width="1" opacity="0.996078431372549" d="M 40.5 41 L 41 52.5 L 40 52.5 L 40.5 41 Z " /><path fill="rgb(237,134,135)" stroke="rgb(237,134,135)" stroke-width="1" opacity="0.996078431372549" d="M 52.5 41 L 53 44 L 57 44.5 L 52 45 L 52.5 41 Z " /><path fill="rgb(237,134,135)" stroke="rgb(237,134,135)" stroke-width="1" opacity="0.996078431372549" d="M 69.5 42 L 69 43.5 Q 69.8 45.8 67.5 45 L 71 49.5 L 72 54.5 L 67.5 61 Q 64.3 64.8 56.5 64 L 56.5 63 Q 65.5 63.5 69 58.5 L 71 51.5 L 67.5 47 Q 65.3 47.8 66 45.5 L 69.5 42 Z " /><path fill="rgb(237,134,135)" stroke="rgb(237,134,135)" stroke-width="1" opacity="0.996078431372549" d="M 56.5 51 L 60 52.5 L 58.5 56 L 55 55.5 L 59 55 Q 60.7 50.9 56.5 52 L 56.5 51 Z " /><path fill="rgb(237,134,135)" stroke="rgb(237,134,135)" stroke-width="1" opacity="0.996078431372549" d="M 0 52 Q 4 50.6 2 57.5 Q 6.8 73.7 18.5 83 L 26.5 88 L 34 89.5 L 30.5 90 Q 17.4 86.6 10 77.5 L 3 66.5 L 0 52 Z " /><path fill="rgb(237,134,135)" stroke="rgb(237,134,135)" stroke-width="1" opacity="0.996078431372549" d="M 52 52 L 54 52.5 L 52.5 56 L 52 52 Z " /><path fill="rgb(237,134,135)" stroke="rgb(237,134,135)" stroke-width="1" opacity="0.996078431372549" d="M 39.5 55 L 40 57.5 L 39 57.5 L 39.5 55 Z " /><path fill="rgb(237,134,135)" stroke="rgb(237,134,135)" stroke-width="1" opacity="0.996078431372549" d="M 28.5 56 L 26.5 59 Q 22 60 21 57.5 L 24.5 58 L 28.5 56 Z " /><path fill="rgb(237,134,135)" stroke="rgb(237,134,135)" stroke-width="1" opacity="0.996078431372549" d="M 10.5 59 L 12 62.5 L 10 61.5 L 10.5 59 Z " /><path fill="rgb(237,134,135)" stroke="rgb(237,134,135)" stroke-width="1" opacity="0.996078431372549" d="M 38.5 59 L 39 60.5 L 34 64.5 L 38.5 59 Z " /><path fill="rgb(237,134,135)" stroke="rgb(237,134,135)" stroke-width="1" opacity="0.996078431372549" d="M 47.5 64 L 54 64.5 L 47.5 65 L 47.5 64 Z " /><path fill="rgb(237,134,135)" stroke="rgb(237,134,135)" stroke-width="1" opacity="0.996078431372549" d="M 13.5 65 L 19 67.5 L 16.5 68 L 13.5 65 Z " /><path fill="rgb(237,134,135)" stroke="rgb(237,134,135)" stroke-width="1" opacity="0.996078431372549" d="M 32.5 65 L 31.5 67 L 30 66.5 L 32.5 65 Z " /><path fill="rgb(237,134,135)" stroke="rgb(237,134,135)" stroke-width="1" opacity="0.996078431372549" d="M 42.5 65 L 46 65.5 L 42.5 66 L 42.5 65 Z " /><path fill="rgb(237,134,135)" stroke="rgb(237,134,135)" stroke-width="1" opacity="0.996078431372549" d="M 26.5 67 L 29 67.5 L 26.5 68 L 26.5 67 Z " /><path fill="rgb(237,134,135)" stroke="rgb(237,134,135)" stroke-width="1" opacity="0.996078431372549" d="M 20.5 68 L 23 68.5 L 20.5 69 L 20.5 68 Z " /><path fill="rgb(237,134,135)" stroke="rgb(237,134,135)" stroke-width="1" opacity="0.996078431372549" d="M 35.5 90 L 39 90.5 L 35.5 91 L 35.5 90 Z " /><path fill="rgb(2,27,72)" stroke="rgb(2,27,72)" stroke-width="1" opacity="0.18823529411764706" d="M 169.5 19 L 170 41.5 L 169 41.5 L 169.5 19 Z " /><path fill="rgb(2,27,72)" stroke="rgb(2,27,72)" stroke-width="1" opacity="0.18823529411764706" d="M 97.5 25 L 98 34.5 L 97 34.5 L 97.5 25 Z " /><path fill="rgb(2,27,72)" stroke="rgb(2,27,72)" stroke-width="1" opacity="0.18823529411764706" d="M 109.5 25 L 110 41.5 L 109 41.5 L 109.5 25 Z " /><path fill="rgb(2,27,72)" stroke="rgb(2,27,72)" stroke-width="1" opacity="0.18823529411764706" d="M 118.5 25 L 120 25.5 L 117.5 27 L 118.5 25 Z " /><path fill="rgb(2,27,72)" stroke="rgb(2,27,72)" stroke-width="1" opacity="0.18823529411764706" d="M 149.5 25 L 150 41.5 L 149 41.5 L 149.5 25 Z " /><path fill="rgb(2,27,72)" stroke="rgb(2,27,72)" stroke-width="1" opacity="0.18823529411764706" d="M 155.5 25 L 157 25.5 L 154.5 27 L 155.5 25 Z " /><path fill="rgb(2,27,72)" stroke="rgb(2,27,72)" stroke-width="1" opacity="0.18823529411764706" d="M 183.5 25 L 186 26.5 L 184.5 26 L 183.5 25 Z " /><path fill="rgb(2,27,72)" stroke="rgb(2,27,72)" stroke-width="1" opacity="0.18823529411764706" d="M 203.5 25 L 206 26.5 L 204.5 26 L 203.5 25 Z " /><path fill="rgb(2,27,72)" stroke="rgb(2,27,72)" stroke-width="1" opacity="0.18823529411764706" d="M 208.5 25 L 207.5 27 L 208.5 25 Z " /><path fill="rgb(2,27,72)" stroke="rgb(2,27,72)" stroke-width="1" opacity="0.18823529411764706" d="M 133.5 26 L 132.5 28 L 133.5 26 Z " /><path fill="rgb(2,27,72)" stroke="rgb(2,27,72)" stroke-width="1" opacity="0.18823529411764706" d="M 174.5 26 L 172 29.5 L 171.5 31 L 171 29.5 L 174.5 26 Z " /><path fill="rgb(2,27,72)" stroke="rgb(2,27,72)" stroke-width="1" opacity="0.18823529411764706" d="M 222.5 26 L 221.5 28 L 222.5 26 Z " /><path fill="rgb(2,27,72)" stroke="rgb(2,27,72)" stroke-width="1" opacity="0.18823529411764706" d="M 152.5 28 L 152 29.5 L 151.5 31 L 151 29.5 L 152.5 28 Z " /><path fill="rgb(2,27,72)" stroke="rgb(2,27,72)" stroke-width="1" opacity="0.18823529411764706" d="M 138.5 29 L 142 29.5 L 137 31.5 Q 136.3 35.3 138.5 36 L 142 36.5 L 138.5 37 Q 135.3 36.3 136 31.5 L 138.5 29 Z " /><path fill="rgb(2,27,72)" stroke="rgb(2,27,72)" stroke-width="1" opacity="0.18823529411764706" d="M 159.5 29 L 162 29.5 L 159.5 30 L 159.5 29 Z " /><path fill="rgb(2,27,72)" stroke="rgb(2,27,72)" stroke-width="1" opacity="0.18823529411764706" d="M 179.5 29 Q 183.5 28.5 184 31.5 L 181.5 30 Q 178.5 30.5 179.5 29 Z " /><path fill="rgb(2,27,72)" stroke="rgb(2,27,72)" stroke-width="1" opacity="0.18823529411764706" d="M 220.5 29 L 221 31.5 Q 218.5 33 220 38.5 L 221 40.5 L 219 41.5 L 220 39.5 Q 217.3 37.7 219 31.5 L 220.5 29 Z " /><path fill="rgb(2,27,72)" stroke="rgb(2,27,72)" stroke-width="1" opacity="0.18823529411764706" d="M 226.5 29 L 232 29.5 L 226.5 30 L 226.5 29 Z " /><path fill="rgb(2,27,72)" stroke="rgb(2,27,72)" stroke-width="1" opacity="0.18823529411764706" d="M 129.5 30 Q 131.8 30.8 131 34.5 L 129.5 42 L 129.5 30 Z " /><path fill="rgb(2,27,72)" stroke="rgb(2,27,72)" stroke-width="1" opacity="0.18823529411764706" d="M 197.5 30 L 197 31.5 L 196.5 42 L 196 31.5 L 197.5 30 Z " /><path fill="rgb(2,27,72)" stroke="rgb(2,27,72)" stroke-width="1" opacity="0.18823529411764706" d="M 189.5 31 L 190 35.5 L 189 35.5 L 189.5 31 Z " /><path fill="rgb(2,27,72)" stroke="rgb(2,27,72)" stroke-width="1" opacity="0.18823529411764706" d="M 213.5 31 L 214 41.5 L 213 41.5 L 213.5 31 Z " /><path fill="rgb(2,27,72)" stroke="rgb(2,27,72)" stroke-width="1" opacity="0.18823529411764706" d="M 228.5 31 L 231 31.5 L 228.5 32 L 228.5 31 Z " /><path fill="rgb(2,27,72)" stroke="rgb(2,27,72)" stroke-width="1" opacity="0.18823529411764706" d="M 117.5 32 L 118 41.5 L 117 41.5 L 117.5 32 Z " /><path fill="rgb(2,27,72)" stroke="rgb(2,27,72)" stroke-width="1" opacity="0.18823529411764706" d="M 156.5 32 L 157 34.5 L 156 34.5 L 156.5 32 Z " /><path fill="rgb(2,27,72)" stroke="rgb(2,27,72)" stroke-width="1" opacity="0.18823529411764706" d="M 176.5 32 L 178.5 37 L 182 37.5 L 178.5 38 Q 174.7 36.7 176.5 32 Z " /><path fill="rgb(2,27,72)" stroke="rgb(2,27,72)" stroke-width="1" opacity="0.18823529411764706" d="M 232.5 32 L 236 34.5 L 235.5 36 L 233.5 33 L 232.5 32 Z " /><path fill="rgb(2,27,72)" stroke="rgb(2,27,72)" stroke-width="1" opacity="0.18823529411764706" d="M 202.5 33 L 203 39.5 L 202 39.5 L 202.5 33 Z " /><path fill="rgb(2,27,72)" stroke="rgb(2,27,72)" stroke-width="1" opacity="0.18823529411764706" d="M 221.5 33 L 222.5 35 L 221.5 33 Z " /><path fill="rgb(2,27,72)" stroke="rgb(2,27,72)" stroke-width="1" opacity="0.18823529411764706" d="M 225.5 35 L 228 35.5 L 225.5 36 L 225.5 35 Z " /><path fill="rgb(2,27,72)" stroke="rgb(2,27,72)" stroke-width="1" opacity="0.18823529411764706" d="M 98.5 36 L 102 37.5 L 99.5 38 L 98.5 36 Z " /><path fill="rgb(2,27,72)" stroke="rgb(2,27,72)" stroke-width="1" opacity="0.18823529411764706" d="M 131.5 36 L 134 39.5 L 131 37.5 L 131.5 36 Z " /><path fill="rgb(2,27,72)" stroke="rgb(2,27,72)" stroke-width="1" opacity="0.18823529411764706" d="M 151.5 36 L 153 38.5 L 151 37.5 L 151.5 36 Z " /><path fill="rgb(2,27,72)" stroke="rgb(2,27,72)" stroke-width="1" opacity="0.18823529411764706" d="M 157.5 36 L 162 37.5 L 158.5 38 L 157.5 36 Z " /><path fill="rgb(2,27,72)" stroke="rgb(2,27,72)" stroke-width="1" opacity="0.18823529411764706" d="M 171.5 36 L 173 38.5 L 171 37.5 L 171.5 36 Z " /><path fill="rgb(2,27,72)" stroke="rgb(2,27,72)" stroke-width="1" opacity="0.18823529411764706" d="M 222.5 36 L 221.5 38 L 222.5 36 Z " /><path fill="rgb(2,27,72)" stroke="rgb(2,27,72)" stroke-width="1" opacity="0.18823529411764706" d="M 93.5 39 L 95.5 42 L 93.5 39 Z " /><path fill="rgb(2,27,72)" stroke="rgb(2,27,72)" stroke-width="1" opacity="0.18823529411764706" d="M 142.5 40 L 143.5 42 L 142.5 40 Z " /><path fill="rgb(2,27,72)" stroke="rgb(2,27,72)" stroke-width="1" opacity="0.18823529411764706" d="M 174.5 40 L 177 41.5 L 175.5 42 L 174.5 40 Z " /><path fill="rgb(2,27,72)" stroke="rgb(2,27,72)" stroke-width="1" opacity="0.18823529411764706" d="M 98.5 42 L 101 42.5 L 98.5 43 L 98.5 42 Z " /><path fill="rgb(2,27,72)" stroke="rgb(2,27,72)" stroke-width="1" opacity="0.18823529411764706" d="M 158.5 42 L 161 42.5 L 158.5 43 L 158.5 42 Z " /><path fill="rgb(2,27,72)" stroke="rgb(2,27,72)" stroke-width="1" opacity="0.18823529411764706" d="M 179.5 42 L 182 42.5 L 179.5 43 L 179.5 42 Z " /><path fill="rgb(2,27,72)" stroke="rgb(2,27,72)" stroke-width="1" opacity="0.18823529411764706" d="M 226.5 42 L 230 42.5 L 226.5 43 L 226.5 42 Z " /><path fill="rgb(2,27,72)" stroke="rgb(2,27,72)" stroke-width="1" opacity="0.18823529411764706" d="M 137.5 43 L 142 43.5 L 137.5 44 L 137.5 43 Z " /><path fill="rgb(2,27,72)" stroke="rgb(2,27,72)" stroke-width="1" opacity="0.18823529411764706" d="M 131.5 45 L 132.5 47 L 131.5 45 Z " /><path fill="rgb(2,27,72)" stroke="rgb(2,27,72)" stroke-width="1" opacity="0.18823529411764706" d="M 147.5 45 L 146.5 47 L 147.5 45 Z " /><path fill="rgb(2,27,72)" stroke="rgb(2,27,72)" stroke-width="1" opacity="0.18823529411764706" d="M 92.5 48 L 98 48.5 L 92.5 49 L 92.5 48 Z " /><path fill="rgb(2,27,72)" stroke="rgb(2,27,72)" stroke-width="1" opacity="0.18823529411764706" d="M 215.5 51 L 216 54.5 L 215 54.5 L 215.5 51 Z " /><path fill="rgb(2,27,72)" stroke="rgb(2,27,72)" stroke-width="1" opacity="0.18823529411764706" d="M 99.5 54 L 102 54.5 L 98.5 56 L 99.5 54 Z " /><path fill="rgb(2,27,72)" stroke="rgb(2,27,72)" stroke-width="1" opacity="0.18823529411764706" d="M 103.5 54 L 106 54.5 L 103.5 55 L 103.5 54 Z " /><path fill="rgb(2,27,72)" stroke="rgb(2,27,72)" stroke-width="1" opacity="0.18823529411764706" d="M 115.5 54 L 118 54.5 L 115.5 55 L 115.5 54 Z " /><path fill="rgb(2,27,72)" stroke="rgb(2,27,72)" stroke-width="1" opacity="0.18823529411764706" d="M 120.5 54 L 123 54.5 L 120.5 55 L 120.5 54 Z " /><path fill="rgb(2,27,72)" stroke="rgb(2,27,72)" stroke-width="1" opacity="0.18823529411764706" d="M 129 54 Q 134.4 52.5 136 55.5 L 134.5 55 Q 130 54.5 130 55.5 L 130 71 L 135 71.5 L 130.5 72 L 129 70.5 L 129 54 Z " /><path fill="rgb(2,27,72)" stroke="rgb(2,27,72)" stroke-width="1" opacity="0.18823529411764706" d="M 140.5 54 L 142 58.5 L 140 59.5 L 141 61.5 L 140 61.5 Q 140.8 58.9 137.5 60 L 137.5 59 L 140 59 L 140.5 54 Z " /><path fill="rgb(2,27,72)" stroke="rgb(2,27,72)" stroke-width="1" opacity="0.18823529411764706" d="M 146.5 54 L 149 54.5 L 146.5 55 L 146.5 54 Z " /><path fill="rgb(2,27,72)" stroke="rgb(2,27,72)" stroke-width="1" opacity="0.18823529411764706" d="M 150.5 54 L 153 54.5 L 150.5 55 L 150.5 54 Z " /><path fill="rgb(2,27,72)" stroke="rgb(2,27,72)" stroke-width="1" opacity="0.18823529411764706" d="M 160.5 54 Q 166.6 52.8 166 55.5 L 164.5 55 Q 159.5 56 160.5 54 Z " /><path fill="rgb(2,27,72)" stroke="rgb(2,27,72)" stroke-width="1" opacity="0.18823529411764706" d="M 178.5 54 L 181 54.5 L 178.5 55 L 178.5 54 Z " /><path fill="rgb(2,27,72)" stroke="rgb(2,27,72)" stroke-width="1" opacity="0.18823529411764706" d="M 182.5 54 L 186 55.5 L 184.5 55 Q 181.5 55.5 182.5 54 Z " /><path fill="rgb(2,27,72)" stroke="rgb(2,27,72)" stroke-width="1" opacity="0.18823529411764706" d="M 195.5 54 L 198 54.5 L 195.5 55 L 195.5 54 Z " /><path fill="rgb(2,27,72)" stroke="rgb(2,27,72)" stroke-width="1" opacity="0.18823529411764706" d="M 217.5 54 L 220 55.5 L 221 60.5 L 220 60.5 L 219.5 59 L 216 60 L 215.5 67 L 215 59 Q 221 61 219 55 L 217.5 54 Z " /><path fill="rgb(2,27,72)" stroke="rgb(2,27,72)" stroke-width="1" opacity="0.18823529411764706" d="M 239 54 L 245.5 55 L 249.5 54 L 251.5 54 Q 256 53 257 55.5 L 255.5 55 Q 249.7 52.9 251 57.5 L 250 57.5 Q 251.3 53.3 246.5 55 L 244.5 56 L 240 55 L 240 70.5 Q 240 71.5 244.5 71 L 244.5 72 Q 239.1 72.6 239 71.5 L 239 54 Z " /><path fill="rgb(2,27,72)" stroke="rgb(2,27,72)" stroke-width="1" opacity="0.18823529411764706" d="M 112.5 55 L 114 55.5 L 111.5 57 L 112.5 55 Z " /><path fill="rgb(2,27,72)" stroke="rgb(2,27,72)" stroke-width="1" opacity="0.18823529411764706" d="M 124.5 55 L 126.5 58 L 124.5 55 Z " /><path fill="rgb(2,27,72)" stroke="rgb(2,27,72)" stroke-width="1" opacity="0.18823529411764706" d="M 174.5 55 L 175.5 57 L 174.5 55 Z " /><path fill="rgb(2,27,72)" stroke="rgb(2,27,72)" stroke-width="1" opacity="0.18823529411764706" d="M 193.5 55 L 191.5 58 L 193.5 55 Z " /><path fill="rgb(2,27,72)" stroke="rgb(2,27,72)" stroke-width="1" opacity="0.18823529411764706" d="M 207.5 55 L 208 59 L 210 59.5 L 208 60 L 207.5 62 L 207 60.5 L 207.5 59 L 206 58.5 L 207.5 55 Z " /><path fill="rgb(2,27,72)" stroke="rgb(2,27,72)" stroke-width="1" opacity="0.18823529411764706" d="M 265.5 55 L 267.5 58 L 265.5 55 Z " /><path fill="rgb(2,27,72)" stroke="rgb(2,27,72)" stroke-width="1" opacity="0.18823529411764706" d="M 108.5 56 L 109.5 58 L 108.5 56 Z " /><path fill="rgb(2,27,72)" stroke="rgb(2,27,72)" stroke-width="1" opacity="0.18823529411764706" d="M 222.5 56 L 221.5 58 L 222.5 56 Z " /><path fill="rgb(2,27,72)" stroke="rgb(2,27,72)" stroke-width="1" opacity="0.18823529411764706" d="M 235.5 56 L 236.5 58 L 235.5 56 Z " /><path fill="rgb(2,27,72)" stroke="rgb(2,27,72)" stroke-width="1" opacity="0.18823529411764706" d="M 157.5 58 L 159 60.5 L 158 60.5 L 157.5 58 Z " /><path fill="rgb(2,27,72)" stroke="rgb(2,27,72)" stroke-width="1" opacity="0.18823529411764706" d="M 99.5 59 L 98.5 61 L 99.5 59 Z " /><path fill="rgb(2,27,72)" stroke="rgb(2,27,72)" stroke-width="1" opacity="0.18823529411764706" d="M 103.5 59 L 104.5 61 L 103.5 59 Z " /><path fill="rgb(2,27,72)" stroke="rgb(2,27,72)" stroke-width="1" opacity="0.18823529411764706" d="M 147.5 59 L 146.5 61 L 147.5 59 Z " /><path fill="rgb(2,27,72)" stroke="rgb(2,27,72)" stroke-width="1" opacity="0.18823529411764706" d="M 151.5 59 L 152.5 61 L 151.5 59 Z " /><path fill="rgb(2,27,72)" stroke="rgb(2,27,72)" stroke-width="1" opacity="0.18823529411764706" d="M 167.5 59 L 166.5 61 L 167.5 59 Z " /><path fill="rgb(2,27,72)" stroke="rgb(2,27,72)" stroke-width="1" opacity="0.18823529411764706" d="M 170.5 59 L 172 60.5 L 172 71 L 177 71.5 L 171 72 L 171 60.5 L 170.5 59 Z " /><path fill="rgb(2,27,72)" stroke="rgb(2,27,72)" stroke-width="1" opacity="0.18823529411764706" d="M 178.5 59 L 178 60.5 L 177.5 62 L 177 60.5 L 178.5 59 Z " /><path fill="rgb(2,27,72)" stroke="rgb(2,27,72)" stroke-width="1" opacity="0.18823529411764706" d="M 181.5 59 L 182.5 61 L 181.5 59 Z " /><path fill="rgb(2,27,72)" stroke="rgb(2,27,72)" stroke-width="1" opacity="0.18823529411764706" d="M 188.5 59 L 189 72 L 183 71.5 L 188 71 L 188.5 59 Z " /><path fill="rgb(2,27,72)" stroke="rgb(2,27,72)" stroke-width="1" opacity="0.18823529411764706" d="M 196.5 59 L 195.5 61 L 196.5 59 Z " /><path fill="rgb(2,27,72)" stroke="rgb(2,27,72)" stroke-width="1" opacity="0.18823529411764706" d="M 226.5 59 L 225.5 61 L 226.5 59 Z " /><path fill="rgb(2,27,72)" stroke="rgb(2,27,72)" stroke-width="1" opacity="0.18823529411764706" d="M 231.5 59 L 232.5 61 L 231.5 59 Z " /><path fill="rgb(2,27,72)" stroke="rgb(2,27,72)" stroke-width="1" opacity="0.18823529411764706" d="M 247.5 59 L 250 59.5 L 247.5 60 L 247.5 59 Z " /><path fill="rgb(2,27,72)" stroke="rgb(2,27,72)" stroke-width="1" opacity="0.18823529411764706" d="M 261.5 59 L 263 60.5 L 263 71 L 268 71.5 L 263.5 72 L 262 70.5 L 262 60.5 L 261.5 59 Z " /><path fill="rgb(2,27,72)" stroke="rgb(2,27,72)" stroke-width="1" opacity="0.18823529411764706" d="M 127.5 60 L 128 72 L 121.5 71 Q 120.2 73.3 115.5 72 L 115.5 71 Q 120.2 72.3 121.5 70 L 127 71 L 127.5 60 Z " /><path fill="rgb(2,27,72)" stroke="rgb(2,27,72)" stroke-width="1" opacity="0.18823529411764706" d="M 114.5 61 L 117 61.5 L 114.5 62 L 114.5 61 Z " /><path fill="rgb(2,27,72)" stroke="rgb(2,27,72)" stroke-width="1" opacity="0.18823529411764706" d="M 256.5 61 L 257 70.5 Q 256 73 251.5 72 L 251.5 71 L 256 71 L 256.5 61 Z " /><path fill="rgb(2,27,72)" stroke="rgb(2,27,72)" stroke-width="1" opacity="0.18823529411764706" d="M 165.5 62 L 166 72 L 160 71.5 L 165 71 L 165.5 62 Z " /><path fill="rgb(2,27,72)" stroke="rgb(2,27,72)" stroke-width="1" opacity="0.18823529411764706" d="M 110 64 L 112 64.5 L 110 65.5 L 110 64 Z " /><path fill="rgb(2,27,72)" stroke="rgb(2,27,72)" stroke-width="1" opacity="0.18823529411764706" d="M 118.5 64 L 122 64.5 L 118.5 65 L 118.5 64 Z " /><path fill="rgb(2,27,72)" stroke="rgb(2,27,72)" stroke-width="1" opacity="0.18823529411764706" d="M 196.5 64 L 208 64.5 L 196.5 65 L 196.5 64 Z " /><path fill="rgb(2,27,72)" stroke="rgb(2,27,72)" stroke-width="1" opacity="0.18823529411764706" d="M 226.5 64 L 238 64.5 L 226.5 65 L 226.5 64 Z " /><path fill="rgb(2,27,72)" stroke="rgb(2,27,72)" stroke-width="1" opacity="0.18823529411764706" d="M 98.5 65 L 99.5 67 L 98.5 65 Z " /><path fill="rgb(2,27,72)" stroke="rgb(2,27,72)" stroke-width="1" opacity="0.18823529411764706" d="M 104.5 65 L 103.5 67 L 104.5 65 Z " /><path fill="rgb(2,27,72)" stroke="rgb(2,27,72)" stroke-width="1" opacity="0.18823529411764706" d="M 116.5 65 L 117 67 L 121.5 66 L 120.5 68 Q 116.8 68.8 116 66.5 L 116.5 65 Z " /><path fill="rgb(2,27,72)" stroke="rgb(2,27,72)" stroke-width="1" opacity="0.18823529411764706" d="M 146.5 65 L 147.5 67 L 146.5 65 Z " /><path fill="rgb(2,27,72)" stroke="rgb(2,27,72)" stroke-width="1" opacity="0.18823529411764706" d="M 152.5 65 L 151.5 67 L 152.5 65 Z " /><path fill="rgb(2,27,72)" stroke="rgb(2,27,72)" stroke-width="1" opacity="0.18823529411764706" d="M 158.5 65 L 159 66.5 L 157 67.5 L 158.5 65 Z " /><path fill="rgb(2,27,72)" stroke="rgb(2,27,72)" stroke-width="1" opacity="0.18823529411764706" d="M 220.5 65 L 221 66.5 Q 219.5 69.5 218 66.5 L 220 66.5 L 220.5 65 Z " /><path fill="rgb(2,27,72)" stroke="rgb(2,27,72)" stroke-width="1" opacity="0.18823529411764706" d="M 204.5 66 L 207 69.5 L 206 69.5 L 204.5 66 Z " /><path fill="rgb(2,27,72)" stroke="rgb(2,27,72)" stroke-width="1" opacity="0.18823529411764706" d="M 141.5 67 L 144.5 71 L 141.5 67 Z " /><path fill="rgb(2,27,72)" stroke="rgb(2,27,72)" stroke-width="1" opacity="0.18823529411764706" d="M 111.5 68 L 113.5 71 L 111.5 68 Z " /><path fill="rgb(2,27,72)" stroke="rgb(2,27,72)" stroke-width="1" opacity="0.18823529411764706" d="M 191.5 68 L 192.5 70 L 191.5 68 Z " /><path fill="rgb(2,27,72)" stroke="rgb(2,27,72)" stroke-width="1" opacity="0.18823529411764706" d="M 92.5 70 L 96.5 71 L 98.5 70 L 105 71.5 L 99.5 72 L 97.5 72 L 92 72 L 92.5 70 Z " /><path fill="rgb(2,27,72)" stroke="rgb(2,27,72)" stroke-width="1" opacity="0.18823529411764706" d="M 212.5 70 L 219 71.5 L 213.5 72 L 212.5 70 Z " /><path fill="rgb(2,27,72)" stroke="rgb(2,27,72)" stroke-width="1" opacity="0.18823529411764706" d="M 146.5 71 L 153 71.5 L 146.5 72 L 146.5 71 Z " /><path fill="rgb(2,27,72)" stroke="rgb(2,27,72)" stroke-width="1" opacity="0.18823529411764706" d="M 196.5 71 L 203 71.5 L 196.5 72 L 196.5 71 Z " /><path fill="rgb(2,27,72)" stroke="rgb(2,27,72)" stroke-width="1" opacity="0.18823529411764706" d="M 226.5 71 L 233 71.5 L 226.5 72 L 226.5 71 Z " /><path fill="rgb(243,112,114)" stroke="rgb(243,112,114)" stroke-width="1" opacity="0.996078431372549" d="M 64.5 4 L 72 8 L 77 19.5 L 77 21.5 L 77 31.5 L 78 32.5 L 76 40.5 L 76 47.5 L 71 66.5 Q 65.6 77.6 56.5 85 Q 50 90 39.5 91 L 24.5 87 L 11 75.5 L 4 63.5 Q 1 57 1 47.5 L 1 43.5 L 3 41.5 Q 6.6 33.1 13.5 28 L 21.5 23 L 43.5 16 L 64.5 4 Z M 55 32 L 45 34 L 42 35 L 42 66 L 55 64 L 62 64 L 68 61 L 72 55 Q 72 48 67 46 L 69 45 L 71 40 L 70 36 Q 66 30 55 32 Z M 39 34 L 31 36 L 29 37 L 29 56 Q 29 59 25 58 L 23 58 L 21 57 L 21 37 L 9 38 L 9 58 L 13 66 L 21 69 L 29 68 L 35 65 L 39 61 L 41 53 Q 42 41 39 34 Z " /><path fill="rgb(243,112,114)" stroke="rgb(243,112,114)" stroke-width="1" opacity="0.996078431372549" d="M 53 41 Q 57.6 39.8 59 42.5 Q 57.6 45.3 53 44 L 53 41 Z " /><path fill="rgb(243,112,114)" stroke="rgb(243,112,114)" stroke-width="1" opacity="0.996078431372549" d="M 54.5 52 Q 60.8 50.1 59 55 L 53 56 L 54.5 52 Z " /></svg>